<svg width="64" height="64" viewBox="0 0 64 64" xmlns="http://www.w3.org/2000/svg" role="img" aria-label="YourTravelGuide icon">
  <circle cx="32" cy="32" r="28" fill="#070707" />
  <path d="M25 20.5l8.2 2.5c.5.1.9.4 1.3.7l12.2 10.4c.5.4.2 1.3-.4 1.3l-6.7-.4c-.3 0-.6.1-.8.3l-5.7 5.4c-.3.3-.8.4-1.2.2l-5-2.4a.8.8 0 00-1 1l2.2 7.8c.2.6-.4 1.1-1 1l-4.6-1.4c-.6-.2-1-.7-1-1.3l.2-7.8a1.6 1.6 0 00-.4-1.1l-3-3.2c-.4-.4-.5-1-.3-1.5l1.3-3.2c.2-.4.7-.7 1.1-.8l7.1-1.8a1.3 1.3 0 00-.2-2.5h-.1l-9.4-.6c-.6 0-1.1-.5-1.2-1.1l-.6-4.9c-.1-.7.5-1.3 1.2-1.3l12.9.1c.4 0 .7.2.9.5l2.4 3.6" fill="#fefefe" />
</svg>
